<svg xmlns="http://www.w3.org/2000/svg" width="1200" height="630" viewBox="0 0 1200 630">
  <defs>
    <linearGradient id="bg" x1="0" y1="0" x2="1" y2="1">
      <stop offset="0" stop-color="#0b0b0f"/>
      <stop offset="1" stop-color="#1a1326"/>
    </linearGradient>
  </defs>
  <rect width="1200" height="630" fill="url(#bg)"/>
  <g transform="translate(80,210)">
    <path fill="#863bff" d="M25.946 44.938c-.664.845-2.021.375-2.021-.698V33.937a2.26 2.26 0 0 0-2.262-2.262H10.287c-.92 0-1.456-1.04-.92-1.788l7.48-10.471c1.07-1.497 0-3.578-1.842-3.578H1.237c-.92 0-1.456-1.04-.92-1.788L10.013.474c.214-.297.556-.474.92-.474h28.894c.92 0 1.456 1.04.92 1.788l-7.48 10.471c-1.07 1.498 0 3.579 1.842 3.579h11.377c.943 0 1.473 1.088.89 1.83L25.947 44.94z" transform="scale(1.4)"/>
  </g>
  <text x="80" y="430" fill="#ffffff" font-family="system-ui, -apple-system, Segoe UI, Roboto, sans-serif" font-size="84" font-weight="700">uText</text>
  <text x="82" y="500" fill="#b9a7d6" font-family="system-ui, -apple-system, Segoe UI, Roboto, sans-serif" font-size="34">Chat terenkripsi end-to-end</text>
  <text x="82" y="548" fill="#8a8a99" font-family="system-ui, -apple-system, Segoe UI, Roboto, sans-serif" font-size="26">Hanya kamu dan lawan bicara yang bisa membaca pesan.</text>
</svg>
